<mxfile host="app.diagrams.net" modified="2024-06-02T05:12:54.911Z" agent="Mozilla/5.0 (Windows NT 10.0; Win64; x64) AppleWebKit/537.36 (KHTML, like Gecko) Chrome/125.0.0.0 Safari/537.36" etag="B5WZgDlvVr9ObgufbsjP" version="24.4.13" type="google">
  <diagram name="Page-1" id="8ldSWP3jOWNHGrgvUV-W">
    <mxGraphModel grid="1" page="0" gridSize="10" guides="0" tooltips="1" connect="1" arrows="1" fold="1" pageScale="1" pageWidth="850" pageHeight="1100" background="none" math="0" shadow="0">
      <root>
        <mxCell id="0" />
        <mxCell id="1" parent="0" />
        <mxCell id="WvAvvm8UyNOayVyNj3BO-258" style="edgeStyle=orthogonalEdgeStyle;rounded=1;orthogonalLoop=1;jettySize=auto;html=1;exitX=0.75;exitY=1;exitDx=0;exitDy=0;strokeWidth=5;startArrow=classicThin;startFill=1;endArrow=classicThin;endFill=1;endSize=0;startSize=0;fillColor=#6a00ff;strokeColor=#3700CC;flowAnimation=0;shadow=0;fontSize=13;fontStyle=1;textShadow=1;entryX=0.75;entryY=0;entryDx=0;entryDy=0;comic=0;enumerate=0;curved=0;arcSize=10;" edge="1" parent="1" target="WvAvvm8UyNOayVyNj3BO-91">
          <mxGeometry relative="1" as="geometry">
            <mxPoint x="440" y="380" as="sourcePoint" />
            <mxPoint x="710" y="740" as="targetPoint" />
            <Array as="points">
              <mxPoint x="440" y="560" />
              <mxPoint x="710" y="560" />
              <mxPoint x="710" y="690" />
              <mxPoint x="693" y="690" />
            </Array>
          </mxGeometry>
        </mxCell>
        <mxCell id="WvAvvm8UyNOayVyNj3BO-259" style="edgeStyle=orthogonalEdgeStyle;rounded=1;orthogonalLoop=1;jettySize=auto;html=1;exitX=0.25;exitY=1;exitDx=0;exitDy=0;entryX=1;entryY=0.25;entryDx=0;entryDy=0;strokeWidth=5;fillColor=#6a00ff;strokeColor=#3700CC;endArrow=classicThin;endFill=1;startArrow=classicThin;startFill=1;endSize=0;startSize=0;flowAnimation=0;shadow=0;fontSize=13;fontStyle=1;textShadow=1;curved=0;arcSize=10;jumpStyle=none;jumpSize=4;" edge="1" parent="1" source="WvAvvm8UyNOayVyNj3BO-102" target="WvAvvm8UyNOayVyNj3BO-5">
          <mxGeometry relative="1" as="geometry">
            <Array as="points">
              <mxPoint x="500" y="40" />
              <mxPoint x="480" y="40" />
              <mxPoint x="480" y="342" />
            </Array>
          </mxGeometry>
        </mxCell>
        <mxCell id="XjKBQxsJ7tb0eZdyF9zt-11" style="edgeStyle=orthogonalEdgeStyle;rounded=1;orthogonalLoop=1;jettySize=auto;html=1;exitX=1;exitY=0.75;exitDx=0;exitDy=0;entryX=1;entryY=0.75;entryDx=0;entryDy=0;strokeWidth=2;fillColor=#fff2cc;strokeColor=#d6b656;endSize=3;endArrow=classicThin;endFill=1;jumpStyle=arc;curved=0;arcSize=10;" edge="1" parent="1" source="WvAvvm8UyNOayVyNj3BO-233" target="WvAvvm8UyNOayVyNj3BO-5">
          <mxGeometry relative="1" as="geometry">
            <Array as="points">
              <mxPoint x="490" y="303" />
              <mxPoint x="490" y="367" />
            </Array>
          </mxGeometry>
        </mxCell>
        <mxCell id="WvAvvm8UyNOayVyNj3BO-208" value="" style="rounded=0;whiteSpace=wrap;html=1;fillColor=none;strokeWidth=2;strokeColor=#666666;shadow=0;fontSize=13;fontStyle=1;textShadow=1;backgroundOutline=0;" vertex="1" parent="1">
          <mxGeometry x="350" y="750" width="210" height="150" as="geometry" />
        </mxCell>
        <mxCell id="WvAvvm8UyNOayVyNj3BO-224" value="" style="rounded=0;whiteSpace=wrap;html=1;fillColor=none;strokeWidth=2;strokeColor=#666666;shadow=0;fontSize=13;fontStyle=1;textShadow=1;" vertex="1" parent="1">
          <mxGeometry x="750" y="750" width="210" height="150" as="geometry" />
        </mxCell>
        <mxCell id="WvAvvm8UyNOayVyNj3BO-42" style="edgeStyle=orthogonalEdgeStyle;rounded=1;orthogonalLoop=1;jettySize=auto;html=1;exitX=0.5;exitY=1;exitDx=0;exitDy=0;entryX=1;entryY=0.5;entryDx=0;entryDy=0;fillColor=#fff2cc;strokeColor=#d6b656;endSize=3;endArrow=classicThin;endFill=1;jumpStyle=arc;jumpSize=6;strokeWidth=2;shadow=0;fontSize=13;fontStyle=1;textShadow=1;curved=0;arcSize=10;noJump=0;" edge="1" parent="1" source="WvAvvm8UyNOayVyNj3BO-5" target="WvAvvm8UyNOayVyNj3BO-6">
          <mxGeometry relative="1" as="geometry" />
        </mxCell>
        <mxCell id="WvAvvm8UyNOayVyNj3BO-43" style="edgeStyle=orthogonalEdgeStyle;rounded=1;orthogonalLoop=1;jettySize=auto;html=1;exitX=0.5;exitY=1;exitDx=0;exitDy=0;entryX=1;entryY=0.5;entryDx=0;entryDy=0;fillColor=#fff2cc;strokeColor=#d6b656;endSize=3;endArrow=classicThin;endFill=1;jumpStyle=arc;jumpSize=6;strokeWidth=2;shadow=0;fontSize=13;fontStyle=1;textShadow=1;curved=0;arcSize=10;noJump=0;" edge="1" parent="1" source="WvAvvm8UyNOayVyNj3BO-5" target="WvAvvm8UyNOayVyNj3BO-7">
          <mxGeometry relative="1" as="geometry" />
        </mxCell>
        <mxCell id="WvAvvm8UyNOayVyNj3BO-5" value="RPi Pico W" style="rounded=0;whiteSpace=wrap;html=1;fillColor=#008a00;strokeColor=#005700;fontColor=#ffffff;shadow=0;fontSize=13;fontStyle=1;textShadow=1;" vertex="1" parent="1">
          <mxGeometry x="340" y="330" width="110" height="50" as="geometry" />
        </mxCell>
        <mxCell id="WvAvvm8UyNOayVyNj3BO-177" style="edgeStyle=orthogonalEdgeStyle;rounded=1;orthogonalLoop=1;jettySize=auto;html=1;exitX=0;exitY=0.25;exitDx=0;exitDy=0;endArrow=classicThin;endFill=1;endSize=2;strokeWidth=5;shadow=0;fontSize=13;fontStyle=1;textShadow=1;curved=0;arcSize=10;" edge="1" parent="1" source="WvAvvm8UyNOayVyNj3BO-6" target="WvAvvm8UyNOayVyNj3BO-169">
          <mxGeometry relative="1" as="geometry" />
        </mxCell>
        <mxCell id="WvAvvm8UyNOayVyNj3BO-178" style="edgeStyle=orthogonalEdgeStyle;rounded=1;orthogonalLoop=1;jettySize=auto;html=1;exitX=0;exitY=0.75;exitDx=0;exitDy=0;entryX=1;entryY=0.5;entryDx=0;entryDy=0;endArrow=classicThin;endFill=1;endSize=2;strokeWidth=5;shadow=0;fontSize=13;fontStyle=1;textShadow=1;curved=0;arcSize=10;" edge="1" parent="1" source="WvAvvm8UyNOayVyNj3BO-6" target="WvAvvm8UyNOayVyNj3BO-170">
          <mxGeometry relative="1" as="geometry" />
        </mxCell>
        <mxCell id="WvAvvm8UyNOayVyNj3BO-6" value="Motor Driver 1&lt;br&gt;(Top)" style="rounded=0;whiteSpace=wrap;html=1;fillColor=#0050ef;fontColor=#ffffff;strokeColor=#001DBC;shadow=0;fontSize=13;fontStyle=1;textShadow=1;" vertex="1" parent="1">
          <mxGeometry x="240" y="390" width="120" height="80" as="geometry" />
        </mxCell>
        <mxCell id="WvAvvm8UyNOayVyNj3BO-179" style="edgeStyle=orthogonalEdgeStyle;rounded=1;orthogonalLoop=1;jettySize=auto;html=1;exitX=0;exitY=0.25;exitDx=0;exitDy=0;entryX=1;entryY=0.5;entryDx=0;entryDy=0;endArrow=classicThin;endFill=1;endSize=2;strokeWidth=5;shadow=0;fontSize=13;fontStyle=1;textShadow=1;curved=0;arcSize=10;" edge="1" parent="1" source="WvAvvm8UyNOayVyNj3BO-7" target="WvAvvm8UyNOayVyNj3BO-171">
          <mxGeometry relative="1" as="geometry" />
        </mxCell>
        <mxCell id="WvAvvm8UyNOayVyNj3BO-180" style="edgeStyle=orthogonalEdgeStyle;rounded=1;orthogonalLoop=1;jettySize=auto;html=1;exitX=0;exitY=0.75;exitDx=0;exitDy=0;entryX=1;entryY=0.5;entryDx=0;entryDy=0;endArrow=classicThin;endFill=1;endSize=2;strokeWidth=5;shadow=0;fontSize=13;fontStyle=1;textShadow=1;curved=0;arcSize=10;" edge="1" parent="1" source="WvAvvm8UyNOayVyNj3BO-7" target="WvAvvm8UyNOayVyNj3BO-172">
          <mxGeometry relative="1" as="geometry" />
        </mxCell>
        <mxCell id="WvAvvm8UyNOayVyNj3BO-7" value="Motor Driver 2&lt;br&gt;(Bottom)" style="rounded=0;whiteSpace=wrap;html=1;fillColor=#0050ef;fontColor=#ffffff;strokeColor=#001DBC;shadow=0;fontSize=13;fontStyle=1;textShadow=1;" vertex="1" parent="1">
          <mxGeometry x="240" y="480" width="120" height="80" as="geometry" />
        </mxCell>
        <mxCell id="WvAvvm8UyNOayVyNj3BO-153" style="edgeStyle=orthogonalEdgeStyle;rounded=1;orthogonalLoop=1;jettySize=auto;html=1;exitX=0.5;exitY=0;exitDx=0;exitDy=0;entryX=0.5;entryY=0;entryDx=0;entryDy=0;endArrow=none;endFill=0;strokeWidth=5;strokeColor=#000000;endSize=0;shadow=0;fontSize=13;fontStyle=1;textShadow=1;curved=0;arcSize=10;" edge="1" parent="1" source="WvAvvm8UyNOayVyNj3BO-15" target="WvAvvm8UyNOayVyNj3BO-19">
          <mxGeometry relative="1" as="geometry" />
        </mxCell>
        <mxCell id="WvAvvm8UyNOayVyNj3BO-15" value="3S 1.3Ah LiPo" style="rounded=0;whiteSpace=wrap;html=1;fillColor=#a20025;fontColor=#ffffff;strokeColor=#6F0000;shadow=0;fontSize=13;fontStyle=1;textShadow=1;" vertex="1" parent="1">
          <mxGeometry x="800" y="310" width="70" height="120" as="geometry" />
        </mxCell>
        <mxCell id="XjKBQxsJ7tb0eZdyF9zt-9" style="edgeStyle=orthogonalEdgeStyle;rounded=1;orthogonalLoop=1;jettySize=auto;html=1;exitX=0.5;exitY=1;exitDx=0;exitDy=0;entryX=0;entryY=0.5;entryDx=0;entryDy=0;curved=0;strokeWidth=2;arcSize=10;strokeColor=#666666;endArrow=classicThin;endFill=1;endSize=3;shadow=0;jumpStyle=arc;jumpSize=7;" edge="1" parent="1" source="WvAvvm8UyNOayVyNj3BO-17" target="WvAvvm8UyNOayVyNj3BO-225">
          <mxGeometry relative="1" as="geometry" />
        </mxCell>
        <mxCell id="XjKBQxsJ7tb0eZdyF9zt-10" style="edgeStyle=orthogonalEdgeStyle;rounded=1;orthogonalLoop=1;jettySize=auto;html=1;exitX=0.5;exitY=1;exitDx=0;exitDy=0;entryX=0.5;entryY=0;entryDx=0;entryDy=0;curved=0;strokeWidth=2;arcSize=10;strokeColor=#666666;endArrow=classicThin;endFill=1;endSize=3;shadow=0;jumpStyle=arc;" edge="1" parent="1" source="WvAvvm8UyNOayVyNj3BO-17" target="WvAvvm8UyNOayVyNj3BO-91">
          <mxGeometry relative="1" as="geometry" />
        </mxCell>
        <mxCell id="WvAvvm8UyNOayVyNj3BO-17" value="Mini560 3.3V" style="rounded=0;whiteSpace=wrap;html=1;fillColor=#0050ef;fontColor=#ffffff;strokeColor=#001DBC;shadow=0;fontSize=13;fontStyle=1;textShadow=1;" vertex="1" parent="1">
          <mxGeometry x="630" y="630" width="70" height="40" as="geometry" />
        </mxCell>
        <mxCell id="WvAvvm8UyNOayVyNj3BO-18" value="" style="endArrow=none;dashed=1;html=1;strokeWidth=2;rounded=1;jumpSize=6;jumpStyle=none;endFill=0;endSize=3;shadow=0;fontSize=14;fontStyle=1;textShadow=1;ignoreEdge=0;noJump=1;curved=0;arcSize=10;" edge="1" parent="1">
          <mxGeometry width="50" height="50" relative="1" as="geometry">
            <mxPoint x="-40" y="590" as="sourcePoint" />
            <mxPoint x="952" y="590" as="targetPoint" />
          </mxGeometry>
        </mxCell>
        <mxCell id="WvAvvm8UyNOayVyNj3BO-60" style="edgeStyle=orthogonalEdgeStyle;rounded=1;orthogonalLoop=1;jettySize=auto;html=1;exitX=0.5;exitY=0;exitDx=0;exitDy=0;entryX=1;entryY=0.25;entryDx=0;entryDy=0;jumpStyle=arc;endArrow=classicThin;endFill=1;endSize=0;jumpSize=6;strokeWidth=5;strokeColor=#000000;shadow=0;fontSize=13;fontStyle=1;textShadow=1;curved=0;arcSize=10;" edge="1" parent="1" source="WvAvvm8UyNOayVyNj3BO-19" target="WvAvvm8UyNOayVyNj3BO-6">
          <mxGeometry relative="1" as="geometry" />
        </mxCell>
        <mxCell id="WvAvvm8UyNOayVyNj3BO-61" style="edgeStyle=orthogonalEdgeStyle;rounded=1;orthogonalLoop=1;jettySize=auto;html=1;exitX=0.5;exitY=0;exitDx=0;exitDy=0;entryX=1;entryY=0.25;entryDx=0;entryDy=0;jumpStyle=arc;endArrow=classicThin;endFill=1;endSize=0;jumpSize=6;strokeWidth=5;strokeColor=#000000;shadow=0;fontSize=13;fontStyle=1;textShadow=1;curved=0;arcSize=10;" edge="1" parent="1" source="WvAvvm8UyNOayVyNj3BO-19" target="WvAvvm8UyNOayVyNj3BO-7">
          <mxGeometry relative="1" as="geometry" />
        </mxCell>
        <mxCell id="WvAvvm8UyNOayVyNj3BO-64" style="edgeStyle=orthogonalEdgeStyle;rounded=1;orthogonalLoop=1;jettySize=auto;html=1;exitX=0.5;exitY=0;exitDx=0;exitDy=0;entryX=0.5;entryY=0;entryDx=0;entryDy=0;jumpStyle=arc;endArrow=classicThin;endFill=1;endSize=0;jumpSize=6;strokeWidth=5;strokeColor=#000000;shadow=0;fontSize=13;fontStyle=1;textShadow=1;curved=0;arcSize=10;" edge="1" parent="1" source="WvAvvm8UyNOayVyNj3BO-19" target="WvAvvm8UyNOayVyNj3BO-20">
          <mxGeometry relative="1" as="geometry" />
        </mxCell>
        <mxCell id="WvAvvm8UyNOayVyNj3BO-65" style="edgeStyle=orthogonalEdgeStyle;rounded=1;orthogonalLoop=1;jettySize=auto;html=1;exitX=0.5;exitY=0;exitDx=0;exitDy=0;entryX=0.5;entryY=0;entryDx=0;entryDy=0;jumpStyle=arc;endArrow=classicThin;endFill=1;endSize=0;jumpSize=6;strokeWidth=5;strokeColor=#000000;shadow=0;fontSize=13;fontStyle=1;textShadow=1;curved=0;arcSize=10;" edge="1" parent="1" source="WvAvvm8UyNOayVyNj3BO-19" target="WvAvvm8UyNOayVyNj3BO-17">
          <mxGeometry relative="1" as="geometry" />
        </mxCell>
        <mxCell id="WvAvvm8UyNOayVyNj3BO-19" value="3S 1.3Ah LiPo" style="rounded=0;whiteSpace=wrap;html=1;fillColor=#a20025;fontColor=#ffffff;strokeColor=#6F0000;shadow=0;fontSize=13;fontStyle=1;textShadow=1;" vertex="1" parent="1">
          <mxGeometry x="720" y="310" width="70" height="120" as="geometry" />
        </mxCell>
        <mxCell id="WvAvvm8UyNOayVyNj3BO-66" style="edgeStyle=orthogonalEdgeStyle;rounded=1;orthogonalLoop=1;jettySize=auto;html=1;exitX=0.5;exitY=1;exitDx=0;exitDy=0;entryX=0.5;entryY=0;entryDx=0;entryDy=0;jumpStyle=arc;endArrow=classicThin;endFill=1;endSize=3;jumpSize=6;strokeWidth=3;strokeColor=#333333;shadow=0;fontSize=13;fontStyle=1;textShadow=1;curved=0;arcSize=10;" edge="1" parent="1" source="WvAvvm8UyNOayVyNj3BO-20" target="WvAvvm8UyNOayVyNj3BO-36">
          <mxGeometry relative="1" as="geometry" />
        </mxCell>
        <mxCell id="WvAvvm8UyNOayVyNj3BO-118" style="edgeStyle=orthogonalEdgeStyle;rounded=1;orthogonalLoop=1;jettySize=auto;html=1;exitX=0.5;exitY=1;exitDx=0;exitDy=0;entryX=0.5;entryY=1;entryDx=0;entryDy=0;jumpStyle=arc;jumpSize=6;endArrow=none;endFill=0;strokeWidth=3;endSize=3;strokeColor=#333333;shadow=0;fontSize=13;fontStyle=1;textShadow=1;curved=0;arcSize=10;" edge="1" parent="1" source="WvAvvm8UyNOayVyNj3BO-20" target="WvAvvm8UyNOayVyNj3BO-116">
          <mxGeometry relative="1" as="geometry" />
        </mxCell>
        <mxCell id="WvAvvm8UyNOayVyNj3BO-154" style="edgeStyle=orthogonalEdgeStyle;rounded=1;orthogonalLoop=1;jettySize=auto;html=1;exitX=0.5;exitY=1;exitDx=0;exitDy=0;entryX=1;entryY=0.5;entryDx=0;entryDy=0;endSize=3;endArrow=classicThin;endFill=1;strokeWidth=3;jumpStyle=arc;strokeColor=#333333;shadow=0;fontSize=13;fontStyle=1;textShadow=1;curved=0;arcSize=10;" edge="1" parent="1" source="WvAvvm8UyNOayVyNj3BO-20" target="WvAvvm8UyNOayVyNj3BO-5">
          <mxGeometry relative="1" as="geometry" />
        </mxCell>
        <mxCell id="WvAvvm8UyNOayVyNj3BO-234" style="edgeStyle=orthogonalEdgeStyle;rounded=1;orthogonalLoop=1;jettySize=auto;html=1;exitX=0.5;exitY=1;exitDx=0;exitDy=0;entryX=1;entryY=0.5;entryDx=0;entryDy=0;jumpStyle=arc;strokeWidth=3;endArrow=classicThin;endFill=1;endSize=3;strokeColor=#333333;shadow=0;fontSize=13;fontStyle=1;textShadow=1;curved=0;arcSize=10;jumpSize=8;" edge="1" parent="1" source="WvAvvm8UyNOayVyNj3BO-20" target="WvAvvm8UyNOayVyNj3BO-233">
          <mxGeometry relative="1" as="geometry" />
        </mxCell>
        <mxCell id="WvAvvm8UyNOayVyNj3BO-20" value="Mini560 5V" style="rounded=0;whiteSpace=wrap;html=1;fillColor=#0050ef;fontColor=#ffffff;strokeColor=#001DBC;shadow=0;fontSize=13;fontStyle=1;textShadow=1;" vertex="1" parent="1">
          <mxGeometry x="580" y="330" width="60" height="40" as="geometry" />
        </mxCell>
        <mxCell id="WvAvvm8UyNOayVyNj3BO-62" style="edgeStyle=orthogonalEdgeStyle;rounded=1;orthogonalLoop=1;jettySize=auto;html=1;exitX=0.5;exitY=1;exitDx=0;exitDy=0;entryX=1;entryY=0.75;entryDx=0;entryDy=0;jumpStyle=arc;endArrow=classicThin;endFill=1;endSize=3;jumpSize=7;strokeWidth=3;strokeColor=#333333;shadow=0;fontSize=13;fontStyle=1;textShadow=1;curved=0;arcSize=10;" edge="1" parent="1" source="WvAvvm8UyNOayVyNj3BO-36" target="WvAvvm8UyNOayVyNj3BO-6">
          <mxGeometry relative="1" as="geometry" />
        </mxCell>
        <mxCell id="WvAvvm8UyNOayVyNj3BO-63" style="edgeStyle=orthogonalEdgeStyle;rounded=1;orthogonalLoop=1;jettySize=auto;html=1;exitX=0.5;exitY=1;exitDx=0;exitDy=0;entryX=1;entryY=0.75;entryDx=0;entryDy=0;jumpStyle=arc;endArrow=classicThin;endFill=1;endSize=3;jumpSize=6;strokeWidth=3;strokeColor=#333333;shadow=0;fontSize=13;fontStyle=1;textShadow=1;curved=0;arcSize=10;" edge="1" parent="1" source="WvAvvm8UyNOayVyNj3BO-36" target="WvAvvm8UyNOayVyNj3BO-7">
          <mxGeometry relative="1" as="geometry" />
        </mxCell>
        <mxCell id="WvAvvm8UyNOayVyNj3BO-36" value="Switch" style="rhombus;whiteSpace=wrap;html=1;fillColor=#647687;fontColor=#ffffff;strokeColor=#314354;shadow=0;fontSize=13;fontStyle=1;textShadow=1;" vertex="1" parent="1">
          <mxGeometry x="580" y="420" width="60" height="40" as="geometry" />
        </mxCell>
        <mxCell id="WvAvvm8UyNOayVyNj3BO-149" style="edgeStyle=orthogonalEdgeStyle;rounded=1;orthogonalLoop=1;jettySize=auto;html=1;exitX=0.5;exitY=0;exitDx=0;exitDy=0;entryX=0.25;entryY=0;entryDx=0;entryDy=0;jumpStyle=arc;jumpSize=6;endArrow=classicThin;endFill=1;strokeWidth=2;endSize=3;fillColor=#fff2cc;strokeColor=#d6b656;shadow=0;fontSize=13;fontStyle=1;textShadow=1;curved=0;arcSize=10;" edge="1" parent="1" source="WvAvvm8UyNOayVyNj3BO-44" target="WvAvvm8UyNOayVyNj3BO-91">
          <mxGeometry relative="1" as="geometry" />
        </mxCell>
        <mxCell id="WvAvvm8UyNOayVyNj3BO-44" value="Temt" style="rounded=0;whiteSpace=wrap;html=1;fillColor=#76608a;fontColor=#ffffff;strokeColor=#432D57;shadow=0;fontSize=13;fontStyle=1;textShadow=1;" vertex="1" parent="1">
          <mxGeometry x="380" y="740" width="30" height="20" as="geometry" />
        </mxCell>
        <mxCell id="WvAvvm8UyNOayVyNj3BO-150" style="edgeStyle=orthogonalEdgeStyle;rounded=1;orthogonalLoop=1;jettySize=auto;html=1;exitX=0.5;exitY=0;exitDx=0;exitDy=0;entryX=0.25;entryY=0;entryDx=0;entryDy=0;jumpStyle=arc;jumpSize=6;endArrow=classicThin;endFill=1;strokeWidth=2;endSize=3;fillColor=#fff2cc;strokeColor=#d6b656;shadow=0;fontSize=13;fontStyle=1;textShadow=1;curved=0;arcSize=10;" edge="1" parent="1" source="WvAvvm8UyNOayVyNj3BO-45" target="WvAvvm8UyNOayVyNj3BO-91">
          <mxGeometry relative="1" as="geometry" />
        </mxCell>
        <mxCell id="WvAvvm8UyNOayVyNj3BO-45" value="Temt" style="rounded=0;whiteSpace=wrap;html=1;fillColor=#76608a;fontColor=#ffffff;strokeColor=#432D57;shadow=0;fontSize=13;fontStyle=1;textShadow=1;" vertex="1" parent="1">
          <mxGeometry x="420" y="740" width="30" height="20" as="geometry" />
        </mxCell>
        <mxCell id="WvAvvm8UyNOayVyNj3BO-151" style="edgeStyle=orthogonalEdgeStyle;rounded=1;orthogonalLoop=1;jettySize=auto;html=1;exitX=0.5;exitY=0;exitDx=0;exitDy=0;entryX=0.25;entryY=0;entryDx=0;entryDy=0;jumpStyle=arc;jumpSize=6;endArrow=classicThin;endFill=1;strokeWidth=2;endSize=3;fillColor=#fff2cc;strokeColor=#d6b656;shadow=0;fontSize=13;fontStyle=1;textShadow=1;curved=0;arcSize=10;" edge="1" parent="1" source="WvAvvm8UyNOayVyNj3BO-46" target="WvAvvm8UyNOayVyNj3BO-91">
          <mxGeometry relative="1" as="geometry" />
        </mxCell>
        <mxCell id="WvAvvm8UyNOayVyNj3BO-46" value="Temt" style="rounded=0;whiteSpace=wrap;html=1;fillColor=#76608a;fontColor=#ffffff;strokeColor=#432D57;shadow=0;fontSize=13;fontStyle=1;textShadow=1;" vertex="1" parent="1">
          <mxGeometry x="460" y="740" width="30" height="20" as="geometry" />
        </mxCell>
        <mxCell id="WvAvvm8UyNOayVyNj3BO-152" style="edgeStyle=orthogonalEdgeStyle;rounded=1;orthogonalLoop=1;jettySize=auto;html=1;exitX=0.5;exitY=0;exitDx=0;exitDy=0;entryX=0.25;entryY=0;entryDx=0;entryDy=0;jumpStyle=arc;jumpSize=6;endArrow=classicThin;endFill=1;strokeWidth=2;endSize=3;fillColor=#fff2cc;strokeColor=#d6b656;shadow=0;fontSize=13;fontStyle=1;textShadow=1;curved=0;arcSize=10;" edge="1" parent="1" source="WvAvvm8UyNOayVyNj3BO-47" target="WvAvvm8UyNOayVyNj3BO-91">
          <mxGeometry relative="1" as="geometry" />
        </mxCell>
        <mxCell id="WvAvvm8UyNOayVyNj3BO-47" value="Temt" style="rounded=0;whiteSpace=wrap;html=1;fillColor=#76608a;fontColor=#ffffff;strokeColor=#432D57;shadow=0;fontSize=13;fontStyle=1;textShadow=1;" vertex="1" parent="1">
          <mxGeometry x="500" y="740" width="30" height="20" as="geometry" />
        </mxCell>
        <mxCell id="WvAvvm8UyNOayVyNj3BO-138" style="edgeStyle=orthogonalEdgeStyle;rounded=1;orthogonalLoop=1;jettySize=auto;html=1;exitX=0.5;exitY=1;exitDx=0;exitDy=0;entryX=0.25;entryY=1;entryDx=0;entryDy=0;jumpStyle=arc;jumpSize=6;endArrow=classicThin;endFill=1;strokeWidth=2;endSize=3;fillColor=#fff2cc;strokeColor=#d6b656;shadow=0;fontSize=13;fontStyle=1;textShadow=1;curved=0;arcSize=10;" edge="1" parent="1" source="WvAvvm8UyNOayVyNj3BO-48" target="WvAvvm8UyNOayVyNj3BO-91">
          <mxGeometry relative="1" as="geometry" />
        </mxCell>
        <mxCell id="WvAvvm8UyNOayVyNj3BO-48" value="Temt" style="rounded=0;whiteSpace=wrap;html=1;fillColor=#76608a;fontColor=#ffffff;strokeColor=#432D57;shadow=0;fontSize=13;fontStyle=1;textShadow=1;" vertex="1" parent="1">
          <mxGeometry x="380" y="890" width="30" height="20" as="geometry" />
        </mxCell>
        <mxCell id="WvAvvm8UyNOayVyNj3BO-136" style="edgeStyle=orthogonalEdgeStyle;rounded=1;orthogonalLoop=1;jettySize=auto;html=1;exitX=0.5;exitY=1;exitDx=0;exitDy=0;entryX=0.25;entryY=1;entryDx=0;entryDy=0;jumpStyle=arc;jumpSize=6;endArrow=classicThin;endFill=1;strokeWidth=2;endSize=3;fillColor=#fff2cc;strokeColor=#d6b656;shadow=0;fontSize=13;fontStyle=1;textShadow=1;curved=0;arcSize=10;" edge="1" parent="1" source="WvAvvm8UyNOayVyNj3BO-49" target="WvAvvm8UyNOayVyNj3BO-91">
          <mxGeometry relative="1" as="geometry" />
        </mxCell>
        <mxCell id="WvAvvm8UyNOayVyNj3BO-49" value="Temt" style="rounded=0;whiteSpace=wrap;html=1;fillColor=#76608a;fontColor=#ffffff;strokeColor=#432D57;shadow=0;fontSize=13;fontStyle=1;textShadow=1;" vertex="1" parent="1">
          <mxGeometry x="420" y="890" width="30" height="20" as="geometry" />
        </mxCell>
        <mxCell id="WvAvvm8UyNOayVyNj3BO-135" style="edgeStyle=orthogonalEdgeStyle;rounded=1;orthogonalLoop=1;jettySize=auto;html=1;exitX=0.5;exitY=1;exitDx=0;exitDy=0;entryX=0.25;entryY=1;entryDx=0;entryDy=0;jumpStyle=arc;jumpSize=6;endArrow=classicThin;endFill=1;strokeWidth=2;endSize=3;fillColor=#fff2cc;strokeColor=#d6b656;shadow=0;fontSize=13;fontStyle=1;textShadow=1;curved=0;arcSize=10;" edge="1" parent="1" source="WvAvvm8UyNOayVyNj3BO-50" target="WvAvvm8UyNOayVyNj3BO-91">
          <mxGeometry relative="1" as="geometry" />
        </mxCell>
        <mxCell id="WvAvvm8UyNOayVyNj3BO-50" value="Temt" style="rounded=0;whiteSpace=wrap;html=1;fillColor=#76608a;fontColor=#ffffff;strokeColor=#432D57;shadow=0;fontSize=13;fontStyle=1;textShadow=1;" vertex="1" parent="1">
          <mxGeometry x="460" y="890" width="30" height="20" as="geometry" />
        </mxCell>
        <mxCell id="WvAvvm8UyNOayVyNj3BO-134" style="edgeStyle=orthogonalEdgeStyle;rounded=1;orthogonalLoop=1;jettySize=auto;html=1;exitX=0.5;exitY=1;exitDx=0;exitDy=0;entryX=0.25;entryY=1;entryDx=0;entryDy=0;jumpStyle=arc;jumpSize=6;endArrow=classicThin;endFill=1;strokeWidth=2;endSize=3;fillColor=#fff2cc;strokeColor=#d6b656;shadow=0;fontSize=13;fontStyle=1;textShadow=1;curved=0;arcSize=10;" edge="1" parent="1" source="WvAvvm8UyNOayVyNj3BO-51" target="WvAvvm8UyNOayVyNj3BO-91">
          <mxGeometry relative="1" as="geometry" />
        </mxCell>
        <mxCell id="WvAvvm8UyNOayVyNj3BO-51" value="Temt" style="rounded=0;whiteSpace=wrap;html=1;fillColor=#76608a;fontColor=#ffffff;strokeColor=#432D57;shadow=0;fontSize=13;fontStyle=1;textShadow=1;" vertex="1" parent="1">
          <mxGeometry x="500" y="890" width="30" height="20" as="geometry" />
        </mxCell>
        <mxCell id="WvAvvm8UyNOayVyNj3BO-245" style="edgeStyle=orthogonalEdgeStyle;rounded=1;orthogonalLoop=1;jettySize=auto;html=1;exitX=1;exitY=0.5;exitDx=0;exitDy=0;entryX=0;entryY=0.5;entryDx=0;entryDy=0;strokeWidth=2;endSize=3;endArrow=classicThin;endFill=1;fillColor=#fff2cc;strokeColor=#d6b656;jumpStyle=arc;shadow=0;fontSize=13;fontStyle=1;textShadow=1;curved=0;arcSize=10;" edge="1" parent="1" source="WvAvvm8UyNOayVyNj3BO-52" target="WvAvvm8UyNOayVyNj3BO-91">
          <mxGeometry relative="1" as="geometry" />
        </mxCell>
        <mxCell id="WvAvvm8UyNOayVyNj3BO-52" value="Temt" style="rounded=0;whiteSpace=wrap;html=1;fillColor=#76608a;fontColor=#ffffff;strokeColor=#432D57;shadow=0;fontSize=13;fontStyle=1;textShadow=1;" vertex="1" parent="1">
          <mxGeometry x="340" y="770" width="30" height="20" as="geometry" />
        </mxCell>
        <mxCell id="WvAvvm8UyNOayVyNj3BO-247" style="edgeStyle=orthogonalEdgeStyle;rounded=1;orthogonalLoop=1;jettySize=auto;html=1;exitX=1;exitY=0.5;exitDx=0;exitDy=0;entryX=0;entryY=0.5;entryDx=0;entryDy=0;strokeWidth=2;endSize=3;endArrow=classicThin;endFill=1;fillColor=#fff2cc;strokeColor=#d6b656;jumpStyle=arc;shadow=0;fontSize=13;fontStyle=1;textShadow=1;curved=0;arcSize=10;" edge="1" parent="1" source="WvAvvm8UyNOayVyNj3BO-53" target="WvAvvm8UyNOayVyNj3BO-91">
          <mxGeometry relative="1" as="geometry" />
        </mxCell>
        <mxCell id="WvAvvm8UyNOayVyNj3BO-53" value="Temt" style="rounded=0;whiteSpace=wrap;html=1;fillColor=#76608a;fontColor=#ffffff;strokeColor=#432D57;shadow=0;fontSize=13;fontStyle=1;textShadow=1;" vertex="1" parent="1">
          <mxGeometry x="340" y="800" width="30" height="20" as="geometry" />
        </mxCell>
        <mxCell id="WvAvvm8UyNOayVyNj3BO-249" style="edgeStyle=orthogonalEdgeStyle;rounded=1;orthogonalLoop=1;jettySize=auto;html=1;exitX=1;exitY=0.5;exitDx=0;exitDy=0;entryX=0;entryY=0.5;entryDx=0;entryDy=0;strokeWidth=2;endSize=3;endArrow=classicThin;endFill=1;fillColor=#fff2cc;strokeColor=#d6b656;jumpStyle=arc;shadow=0;fontSize=13;fontStyle=1;textShadow=1;flowAnimation=0;curved=0;arcSize=10;" edge="1" parent="1" source="WvAvvm8UyNOayVyNj3BO-54" target="WvAvvm8UyNOayVyNj3BO-91">
          <mxGeometry relative="1" as="geometry" />
        </mxCell>
        <mxCell id="WvAvvm8UyNOayVyNj3BO-54" value="Temt" style="rounded=0;whiteSpace=wrap;html=1;fillColor=#76608a;fontColor=#ffffff;strokeColor=#432D57;shadow=0;fontSize=13;fontStyle=1;textShadow=1;" vertex="1" parent="1">
          <mxGeometry x="340" y="830" width="30" height="20" as="geometry" />
        </mxCell>
        <mxCell id="WvAvvm8UyNOayVyNj3BO-250" style="edgeStyle=orthogonalEdgeStyle;rounded=1;orthogonalLoop=1;jettySize=auto;html=1;exitX=1;exitY=0.5;exitDx=0;exitDy=0;entryX=0;entryY=0.5;entryDx=0;entryDy=0;strokeWidth=2;endSize=3;endArrow=classicThin;endFill=1;fillColor=#fff2cc;strokeColor=#d6b656;jumpStyle=arc;shadow=0;fontSize=13;fontStyle=1;textShadow=1;curved=0;arcSize=10;" edge="1" parent="1" source="WvAvvm8UyNOayVyNj3BO-55" target="WvAvvm8UyNOayVyNj3BO-91">
          <mxGeometry relative="1" as="geometry" />
        </mxCell>
        <mxCell id="WvAvvm8UyNOayVyNj3BO-55" value="Temt" style="rounded=0;whiteSpace=wrap;html=1;fillColor=#76608a;fontColor=#ffffff;strokeColor=#432D57;shadow=0;fontSize=13;fontStyle=1;textShadow=1;" vertex="1" parent="1">
          <mxGeometry x="340" y="860" width="30" height="20" as="geometry" />
        </mxCell>
        <mxCell id="WvAvvm8UyNOayVyNj3BO-251" style="edgeStyle=orthogonalEdgeStyle;rounded=1;orthogonalLoop=1;jettySize=auto;html=1;exitX=1;exitY=0.5;exitDx=0;exitDy=0;strokeWidth=2;strokeColor=#d6b656;fillColor=#fff2cc;endArrow=classicThin;endFill=1;endSize=3;jumpStyle=arc;shadow=0;fontSize=13;fontStyle=1;textShadow=1;curved=0;arcSize=10;" edge="1" parent="1" source="WvAvvm8UyNOayVyNj3BO-56" target="WvAvvm8UyNOayVyNj3BO-91">
          <mxGeometry relative="1" as="geometry" />
        </mxCell>
        <mxCell id="WvAvvm8UyNOayVyNj3BO-56" value="Temt" style="rounded=0;whiteSpace=wrap;html=1;fillColor=#76608a;fontColor=#ffffff;strokeColor=#432D57;shadow=0;fontSize=13;fontStyle=1;textShadow=1;" vertex="1" parent="1">
          <mxGeometry x="540" y="770" width="30" height="20" as="geometry" />
        </mxCell>
        <mxCell id="WvAvvm8UyNOayVyNj3BO-252" style="edgeStyle=orthogonalEdgeStyle;rounded=1;orthogonalLoop=1;jettySize=auto;html=1;exitX=1;exitY=0.5;exitDx=0;exitDy=0;entryX=0;entryY=0.5;entryDx=0;entryDy=0;strokeWidth=2;strokeColor=#d6b656;fillColor=#fff2cc;endArrow=classicThin;endFill=1;endSize=3;jumpStyle=arc;shadow=0;fontSize=13;fontStyle=1;textShadow=1;curved=0;arcSize=10;" edge="1" parent="1" source="WvAvvm8UyNOayVyNj3BO-57" target="WvAvvm8UyNOayVyNj3BO-91">
          <mxGeometry relative="1" as="geometry" />
        </mxCell>
        <mxCell id="WvAvvm8UyNOayVyNj3BO-57" value="Temt" style="rounded=0;whiteSpace=wrap;html=1;fillColor=#76608a;fontColor=#ffffff;strokeColor=#432D57;shadow=0;fontSize=13;fontStyle=1;textShadow=1;" vertex="1" parent="1">
          <mxGeometry x="540" y="800" width="30" height="20" as="geometry" />
        </mxCell>
        <mxCell id="WvAvvm8UyNOayVyNj3BO-254" style="edgeStyle=orthogonalEdgeStyle;rounded=1;orthogonalLoop=1;jettySize=auto;html=1;exitX=1;exitY=0.5;exitDx=0;exitDy=0;entryX=0;entryY=0.5;entryDx=0;entryDy=0;strokeWidth=2;strokeColor=#d6b656;fillColor=#fff2cc;endArrow=classicThin;endFill=1;endSize=3;jumpStyle=arc;shadow=0;fontSize=13;fontStyle=1;textShadow=1;curved=0;arcSize=10;" edge="1" parent="1" source="WvAvvm8UyNOayVyNj3BO-58" target="WvAvvm8UyNOayVyNj3BO-91">
          <mxGeometry relative="1" as="geometry" />
        </mxCell>
        <mxCell id="WvAvvm8UyNOayVyNj3BO-58" value="Temt" style="rounded=0;whiteSpace=wrap;html=1;fillColor=#76608a;fontColor=#ffffff;strokeColor=#432D57;shadow=0;fontSize=13;fontStyle=1;textShadow=1;" vertex="1" parent="1">
          <mxGeometry x="540" y="830" width="30" height="20" as="geometry" />
        </mxCell>
        <mxCell id="WvAvvm8UyNOayVyNj3BO-255" style="edgeStyle=orthogonalEdgeStyle;rounded=1;orthogonalLoop=1;jettySize=auto;html=1;exitX=1;exitY=0.5;exitDx=0;exitDy=0;entryX=0;entryY=0.5;entryDx=0;entryDy=0;strokeWidth=2;strokeColor=#d6b656;fillColor=#fff2cc;endArrow=classicThin;endFill=1;endSize=3;jumpStyle=arc;shadow=0;fontSize=13;fontStyle=1;textShadow=1;curved=0;arcSize=10;" edge="1" parent="1" source="WvAvvm8UyNOayVyNj3BO-59" target="WvAvvm8UyNOayVyNj3BO-91">
          <mxGeometry relative="1" as="geometry" />
        </mxCell>
        <mxCell id="WvAvvm8UyNOayVyNj3BO-59" value="Temt" style="rounded=0;whiteSpace=wrap;html=1;fillColor=#76608a;fontColor=#ffffff;strokeColor=#432D57;shadow=0;fontSize=13;fontStyle=1;textShadow=1;" vertex="1" parent="1">
          <mxGeometry x="540" y="860" width="30" height="20" as="geometry" />
        </mxCell>
        <mxCell id="WvAvvm8UyNOayVyNj3BO-91" value="ESP32" style="rounded=0;whiteSpace=wrap;html=1;fillColor=#008a00;fontColor=#ffffff;strokeColor=#005700;shadow=0;fontSize=13;fontStyle=1;textShadow=1;" vertex="1" parent="1">
          <mxGeometry x="610" y="745" width="110" height="40" as="geometry" />
        </mxCell>
        <mxCell id="WvAvvm8UyNOayVyNj3BO-102" value="RP2040 Zero" style="rounded=0;whiteSpace=wrap;html=1;fillColor=#008a00;fontColor=#ffffff;strokeColor=#005700;shadow=0;fontSize=13;fontStyle=1;textShadow=1;" vertex="1" parent="1">
          <mxGeometry x="485" y="-50" width="60" height="40" as="geometry" />
        </mxCell>
        <mxCell id="WvAvvm8UyNOayVyNj3BO-181" style="edgeStyle=orthogonalEdgeStyle;rounded=1;orthogonalLoop=1;jettySize=auto;html=1;exitX=0.5;exitY=0;exitDx=0;exitDy=0;entryX=0.5;entryY=1;entryDx=0;entryDy=0;endSize=3;endArrow=classicThin;endFill=1;strokeWidth=2;strokeColor=#666666;shadow=0;fontSize=13;fontStyle=1;textShadow=1;curved=0;arcSize=10;" edge="1" parent="1" source="WvAvvm8UyNOayVyNj3BO-104" target="WvAvvm8UyNOayVyNj3BO-102">
          <mxGeometry relative="1" as="geometry" />
        </mxCell>
        <mxCell id="WvAvvm8UyNOayVyNj3BO-104" value="CN3903 3.3V" style="rounded=0;whiteSpace=wrap;html=1;fillColor=#0050ef;fontColor=#ffffff;strokeColor=#001DBC;shadow=0;fontSize=13;fontStyle=1;textShadow=1;" vertex="1" parent="1">
          <mxGeometry x="485" y="50" width="60" height="40" as="geometry" />
        </mxCell>
        <mxCell id="WvAvvm8UyNOayVyNj3BO-127" style="edgeStyle=orthogonalEdgeStyle;rounded=1;orthogonalLoop=1;jettySize=auto;html=1;exitX=1;exitY=0.25;exitDx=0;exitDy=0;entryX=0;entryY=0.5;entryDx=0;entryDy=0;jumpStyle=arc;jumpSize=6;fillColor=#fff2cc;strokeColor=#d6b656;endArrow=classicThin;endFill=1;strokeWidth=2;endSize=3;shadow=0;fontSize=13;fontStyle=1;textShadow=1;curved=0;arcSize=10;" edge="1" parent="1" source="WvAvvm8UyNOayVyNj3BO-107" target="WvAvvm8UyNOayVyNj3BO-102">
          <mxGeometry relative="1" as="geometry" />
        </mxCell>
        <mxCell id="WvAvvm8UyNOayVyNj3BO-107" value="&lt;span style=&quot;font-family: Arial; font-size: 13px; text-align: left; white-space-collapse: preserve;&quot;&gt;TF Mini Plus&lt;/span&gt;" style="rounded=0;whiteSpace=wrap;html=1;fillColor=#76608a;fontColor=#ffffff;strokeColor=#432D57;shadow=0;fontSize=13;fontStyle=1;textShadow=1;" vertex="1" parent="1">
          <mxGeometry x="290" y="10" width="85" height="40" as="geometry" />
        </mxCell>
        <mxCell id="WvAvvm8UyNOayVyNj3BO-128" style="edgeStyle=orthogonalEdgeStyle;rounded=1;orthogonalLoop=1;jettySize=auto;html=1;exitX=1;exitY=0.25;exitDx=0;exitDy=0;entryX=0;entryY=0.5;entryDx=0;entryDy=0;jumpStyle=arc;jumpSize=6;fillColor=#fff2cc;strokeColor=#d6b656;endArrow=classicThin;endFill=1;strokeWidth=2;endSize=3;shadow=0;fontSize=13;fontStyle=1;textShadow=1;curved=0;arcSize=10;" edge="1" parent="1" source="WvAvvm8UyNOayVyNj3BO-109" target="WvAvvm8UyNOayVyNj3BO-102">
          <mxGeometry relative="1" as="geometry" />
        </mxCell>
        <mxCell id="WvAvvm8UyNOayVyNj3BO-109" value="&lt;span style=&quot;font-family: Arial; font-size: 13px; text-align: left; white-space-collapse: preserve;&quot;&gt;TF Mini Plus&lt;/span&gt;" style="rounded=0;whiteSpace=wrap;html=1;fillColor=#76608a;fontColor=#ffffff;strokeColor=#432D57;shadow=0;fontSize=13;fontStyle=1;textShadow=1;" vertex="1" parent="1">
          <mxGeometry x="290" y="60" width="85" height="40" as="geometry" />
        </mxCell>
        <mxCell id="WvAvvm8UyNOayVyNj3BO-129" style="edgeStyle=orthogonalEdgeStyle;rounded=1;orthogonalLoop=1;jettySize=auto;html=1;exitX=1;exitY=0.25;exitDx=0;exitDy=0;entryX=0;entryY=0.5;entryDx=0;entryDy=0;jumpStyle=arc;jumpSize=6;fillColor=#fff2cc;strokeColor=#d6b656;endArrow=classicThin;endFill=1;strokeWidth=2;endSize=3;shadow=0;fontSize=13;fontStyle=1;textShadow=1;curved=0;arcSize=10;" edge="1" parent="1" source="WvAvvm8UyNOayVyNj3BO-110" target="WvAvvm8UyNOayVyNj3BO-102">
          <mxGeometry relative="1" as="geometry" />
        </mxCell>
        <mxCell id="WvAvvm8UyNOayVyNj3BO-110" value="&lt;span style=&quot;font-family: Arial; font-size: 13px; text-align: left; white-space-collapse: preserve;&quot;&gt;TF Mini Plus&lt;/span&gt;" style="rounded=0;whiteSpace=wrap;html=1;fillColor=#76608a;fontColor=#ffffff;strokeColor=#432D57;shadow=0;fontSize=13;fontStyle=1;textShadow=1;" vertex="1" parent="1">
          <mxGeometry x="290" y="110" width="85" height="40" as="geometry" />
        </mxCell>
        <mxCell id="WvAvvm8UyNOayVyNj3BO-126" style="edgeStyle=orthogonalEdgeStyle;rounded=1;orthogonalLoop=1;jettySize=auto;html=1;exitX=1;exitY=0.25;exitDx=0;exitDy=0;entryX=0;entryY=0.5;entryDx=0;entryDy=0;jumpStyle=arc;jumpSize=6;fillColor=#fff2cc;strokeColor=#d6b656;endArrow=classicThin;endFill=1;strokeWidth=2;endSize=3;shadow=0;fontSize=13;fontStyle=1;textShadow=1;curved=0;arcSize=10;" edge="1" parent="1" source="WvAvvm8UyNOayVyNj3BO-111" target="WvAvvm8UyNOayVyNj3BO-102">
          <mxGeometry relative="1" as="geometry" />
        </mxCell>
        <mxCell id="WvAvvm8UyNOayVyNj3BO-111" value="&lt;span style=&quot;font-family: Arial; font-size: 13px; text-align: left; white-space-collapse: preserve;&quot;&gt;TF Mini Plus&lt;/span&gt;" style="rounded=0;whiteSpace=wrap;html=1;fillColor=#76608a;fontColor=#ffffff;strokeColor=#432D57;shadow=0;fontSize=13;fontStyle=1;textShadow=1;" vertex="1" parent="1">
          <mxGeometry x="290" y="-40" width="85" height="40" as="geometry" />
        </mxCell>
        <mxCell id="WvAvvm8UyNOayVyNj3BO-119" style="edgeStyle=orthogonalEdgeStyle;rounded=1;orthogonalLoop=1;jettySize=auto;html=1;exitX=0;exitY=0.5;exitDx=0;exitDy=0;entryX=1;entryY=0.5;entryDx=0;entryDy=0;jumpStyle=arc;jumpSize=6;endArrow=classicThin;endFill=1;strokeWidth=3;endSize=3;strokeColor=#333333;shadow=0;fontSize=13;fontStyle=1;textShadow=1;curved=0;arcSize=10;" edge="1" parent="1" source="WvAvvm8UyNOayVyNj3BO-116" target="WvAvvm8UyNOayVyNj3BO-110">
          <mxGeometry relative="1" as="geometry" />
        </mxCell>
        <mxCell id="WvAvvm8UyNOayVyNj3BO-120" style="edgeStyle=orthogonalEdgeStyle;rounded=1;orthogonalLoop=1;jettySize=auto;html=1;exitX=0;exitY=0.5;exitDx=0;exitDy=0;entryX=1;entryY=0.5;entryDx=0;entryDy=0;jumpStyle=arc;jumpSize=6;endArrow=classicThin;endFill=1;strokeWidth=3;endSize=3;strokeColor=#333333;shadow=0;fontSize=13;fontStyle=1;textShadow=1;curved=0;arcSize=10;" edge="1" parent="1" source="WvAvvm8UyNOayVyNj3BO-116" target="WvAvvm8UyNOayVyNj3BO-109">
          <mxGeometry relative="1" as="geometry" />
        </mxCell>
        <mxCell id="WvAvvm8UyNOayVyNj3BO-121" style="edgeStyle=orthogonalEdgeStyle;rounded=1;orthogonalLoop=1;jettySize=auto;html=1;exitX=0.5;exitY=0;exitDx=0;exitDy=0;entryX=0.5;entryY=1;entryDx=0;entryDy=0;jumpStyle=arc;jumpSize=6;endArrow=classicThin;endFill=1;strokeWidth=3;endSize=3;strokeColor=#333333;shadow=0;fontSize=13;fontStyle=1;textShadow=1;curved=0;arcSize=10;" edge="1" parent="1" source="WvAvvm8UyNOayVyNj3BO-116" target="WvAvvm8UyNOayVyNj3BO-104">
          <mxGeometry relative="1" as="geometry" />
        </mxCell>
        <mxCell id="WvAvvm8UyNOayVyNj3BO-124" style="edgeStyle=orthogonalEdgeStyle;rounded=1;orthogonalLoop=1;jettySize=auto;html=1;exitX=0;exitY=0.5;exitDx=0;exitDy=0;entryX=1;entryY=0.5;entryDx=0;entryDy=0;jumpStyle=arc;jumpSize=6;endArrow=classicThin;endFill=1;strokeWidth=3;endSize=3;strokeColor=#333333;shadow=0;fontSize=13;fontStyle=1;textShadow=1;curved=0;arcSize=10;" edge="1" parent="1" source="WvAvvm8UyNOayVyNj3BO-116" target="WvAvvm8UyNOayVyNj3BO-107">
          <mxGeometry relative="1" as="geometry" />
        </mxCell>
        <mxCell id="WvAvvm8UyNOayVyNj3BO-125" style="edgeStyle=orthogonalEdgeStyle;rounded=1;orthogonalLoop=1;jettySize=auto;html=1;exitX=0;exitY=0.5;exitDx=0;exitDy=0;entryX=1;entryY=0.5;entryDx=0;entryDy=0;jumpStyle=arc;jumpSize=6;endArrow=classicThin;endFill=1;strokeWidth=3;endSize=3;strokeColor=#333333;shadow=0;fontSize=13;fontStyle=1;textShadow=1;curved=0;arcSize=10;" edge="1" parent="1" source="WvAvvm8UyNOayVyNj3BO-116" target="WvAvvm8UyNOayVyNj3BO-111">
          <mxGeometry relative="1" as="geometry" />
        </mxCell>
        <mxCell id="WvAvvm8UyNOayVyNj3BO-186" style="edgeStyle=orthogonalEdgeStyle;rounded=1;orthogonalLoop=1;jettySize=auto;html=1;exitX=0;exitY=0;exitDx=0;exitDy=0;entryX=0;entryY=0.75;entryDx=0;entryDy=0;fontSize=13;strokeWidth=3;endSize=3;strokeColor=#333333;endArrow=classicThin;endFill=1;shadow=0;fontStyle=1;textShadow=1;curved=0;arcSize=10;" edge="1" parent="1" source="WvAvvm8UyNOayVyNj3BO-116" target="WvAvvm8UyNOayVyNj3BO-184">
          <mxGeometry relative="1" as="geometry" />
        </mxCell>
        <mxCell id="WvAvvm8UyNOayVyNj3BO-188" style="edgeStyle=orthogonalEdgeStyle;rounded=1;orthogonalLoop=1;jettySize=auto;html=1;exitX=0;exitY=0;exitDx=0;exitDy=0;entryX=0;entryY=0.5;entryDx=0;entryDy=0;strokeWidth=3;endSize=3;strokeColor=#333333;endArrow=classicThin;endFill=1;shadow=0;fontSize=13;fontStyle=1;textShadow=1;curved=0;arcSize=10;" edge="1" parent="1" source="WvAvvm8UyNOayVyNj3BO-116" target="WvAvvm8UyNOayVyNj3BO-187">
          <mxGeometry relative="1" as="geometry" />
        </mxCell>
        <mxCell id="WvAvvm8UyNOayVyNj3BO-116" value="" style="rounded=0;whiteSpace=wrap;html=1;glass=0;fillColor=none;perimeter=none;strokeColor=none;shadow=0;fontSize=13;fontStyle=1;textShadow=1;" vertex="1" parent="1">
          <mxGeometry x="505" y="120" width="20" height="20" as="geometry" />
        </mxCell>
        <mxCell id="WvAvvm8UyNOayVyNj3BO-169" value="Motor 1&lt;br&gt;(FR)" style="rounded=0;whiteSpace=wrap;html=1;shadow=0;fontSize=13;fontStyle=1;textShadow=1;" vertex="1" parent="1">
          <mxGeometry x="110" y="380" width="80" height="60" as="geometry" />
        </mxCell>
        <mxCell id="WvAvvm8UyNOayVyNj3BO-170" value="Motor 2&lt;br&gt;(FL)" style="rounded=0;whiteSpace=wrap;html=1;shadow=0;fontSize=13;fontStyle=1;textShadow=1;" vertex="1" parent="1">
          <mxGeometry x="10" y="420" width="80" height="60" as="geometry" />
        </mxCell>
        <mxCell id="WvAvvm8UyNOayVyNj3BO-171" value="Motor 3&lt;br&gt;(BR)" style="rounded=0;whiteSpace=wrap;html=1;shadow=0;fontSize=13;fontStyle=1;textShadow=1;" vertex="1" parent="1">
          <mxGeometry x="110" y="470" width="80" height="60" as="geometry" />
        </mxCell>
        <mxCell id="WvAvvm8UyNOayVyNj3BO-172" value="Motor 4&lt;br&gt;(BL)" style="rounded=0;whiteSpace=wrap;html=1;shadow=0;fontSize=13;fontStyle=1;textShadow=1;" vertex="1" parent="1">
          <mxGeometry x="10" y="510" width="80" height="60" as="geometry" />
        </mxCell>
        <mxCell id="WvAvvm8UyNOayVyNj3BO-182" value="" style="endArrow=none;dashed=1;html=1;strokeWidth=2;rounded=1;jumpSize=6;jumpStyle=none;endFill=0;endSize=3;shadow=0;fontSize=14;fontStyle=1;textShadow=1;noJump=1;curved=0;arcSize=10;" edge="1" parent="1">
          <mxGeometry width="50" height="50" relative="1" as="geometry">
            <mxPoint x="-40" y="200" as="sourcePoint" />
            <mxPoint x="952" y="200" as="targetPoint" />
          </mxGeometry>
        </mxCell>
        <mxCell id="WvAvvm8UyNOayVyNj3BO-185" style="edgeStyle=orthogonalEdgeStyle;rounded=1;orthogonalLoop=1;jettySize=auto;html=1;exitX=0;exitY=0.5;exitDx=0;exitDy=0;entryX=1;entryY=0.5;entryDx=0;entryDy=0;fillColor=#fff2cc;strokeColor=#d6b656;endArrow=classicThin;endFill=1;strokeWidth=2;shadow=0;fontSize=13;fontStyle=1;textShadow=1;curved=0;arcSize=10;" edge="1" parent="1" source="WvAvvm8UyNOayVyNj3BO-184" target="WvAvvm8UyNOayVyNj3BO-102">
          <mxGeometry relative="1" as="geometry" />
        </mxCell>
        <mxCell id="WvAvvm8UyNOayVyNj3BO-184" value="&lt;div style=&quot;font-size: 13px;&quot;&gt;&lt;span style=&quot;background-color: initial; font-size: 13px; white-space-collapse: preserve;&quot;&gt;&lt;font style=&quot;font-size: 13px;&quot; face=&quot;Arial&quot;&gt;ICM20948 IMU&lt;/font&gt;&lt;/span&gt;&lt;/div&gt;" style="rounded=0;whiteSpace=wrap;html=1;fillColor=#76608a;fontColor=#ffffff;strokeColor=#432D57;align=center;shadow=0;fontSize=13;fontStyle=1;textShadow=1;" vertex="1" parent="1">
          <mxGeometry x="595" y="-60" width="80" height="60" as="geometry" />
        </mxCell>
        <mxCell id="WvAvvm8UyNOayVyNj3BO-189" style="edgeStyle=orthogonalEdgeStyle;rounded=1;orthogonalLoop=1;jettySize=auto;html=1;exitX=0;exitY=0.25;exitDx=0;exitDy=0;entryX=1;entryY=0.5;entryDx=0;entryDy=0;fillColor=#fff2cc;strokeColor=#d6b656;endSize=3;endArrow=classicThin;endFill=1;strokeWidth=2;shadow=0;fontSize=13;fontStyle=1;textShadow=1;curved=0;arcSize=10;" edge="1" parent="1" source="WvAvvm8UyNOayVyNj3BO-187" target="WvAvvm8UyNOayVyNj3BO-102">
          <mxGeometry relative="1" as="geometry" />
        </mxCell>
        <mxCell id="WvAvvm8UyNOayVyNj3BO-187" value="&lt;div style=&quot;font-size: 13px;&quot;&gt;&lt;span style=&quot;background-color: initial; font-size: 13px; white-space-collapse: preserve;&quot;&gt;&lt;font style=&quot;font-size: 13px;&quot; face=&quot;Arial&quot;&gt;Bluetooth&lt;/font&gt;&lt;/span&gt;&lt;/div&gt;" style="rounded=0;whiteSpace=wrap;html=1;fillColor=#76608a;fontColor=#ffffff;strokeColor=#432D57;align=center;shadow=0;fontSize=13;fontStyle=1;textShadow=1;" vertex="1" parent="1">
          <mxGeometry x="595" y="30" width="120" height="40" as="geometry" />
        </mxCell>
        <mxCell id="WvAvvm8UyNOayVyNj3BO-192" value="LED" style="rounded=0;whiteSpace=wrap;html=1;fillColor=#76608a;fontColor=#ffffff;strokeColor=#432D57;shadow=0;fontSize=13;fontStyle=1;textShadow=1;" vertex="1" parent="1">
          <mxGeometry x="780" y="740" width="30" height="20" as="geometry" />
        </mxCell>
        <mxCell id="WvAvvm8UyNOayVyNj3BO-193" value="LED" style="rounded=0;whiteSpace=wrap;html=1;fillColor=#76608a;fontColor=#ffffff;strokeColor=#432D57;shadow=0;fontSize=13;fontStyle=1;textShadow=1;" vertex="1" parent="1">
          <mxGeometry x="820" y="740" width="30" height="20" as="geometry" />
        </mxCell>
        <mxCell id="WvAvvm8UyNOayVyNj3BO-194" value="LED" style="rounded=0;whiteSpace=wrap;html=1;fillColor=#76608a;fontColor=#ffffff;strokeColor=#432D57;shadow=0;fontSize=13;fontStyle=1;textShadow=1;" vertex="1" parent="1">
          <mxGeometry x="860" y="740" width="30" height="20" as="geometry" />
        </mxCell>
        <mxCell id="WvAvvm8UyNOayVyNj3BO-195" value="LED" style="rounded=0;whiteSpace=wrap;html=1;fillColor=#76608a;fontColor=#ffffff;strokeColor=#432D57;shadow=0;fontSize=13;fontStyle=1;textShadow=1;" vertex="1" parent="1">
          <mxGeometry x="900" y="740" width="30" height="20" as="geometry" />
        </mxCell>
        <mxCell id="WvAvvm8UyNOayVyNj3BO-196" value="LED" style="rounded=0;whiteSpace=wrap;html=1;fillColor=#76608a;fontColor=#ffffff;strokeColor=#432D57;shadow=0;fontSize=13;fontStyle=1;textShadow=1;" vertex="1" parent="1">
          <mxGeometry x="780" y="890" width="30" height="20" as="geometry" />
        </mxCell>
        <mxCell id="WvAvvm8UyNOayVyNj3BO-197" value="LED" style="rounded=0;whiteSpace=wrap;html=1;fillColor=#76608a;fontColor=#ffffff;strokeColor=#432D57;shadow=0;fontSize=13;fontStyle=1;textShadow=1;" vertex="1" parent="1">
          <mxGeometry x="820" y="890" width="30" height="20" as="geometry" />
        </mxCell>
        <mxCell id="WvAvvm8UyNOayVyNj3BO-198" value="LED" style="rounded=0;whiteSpace=wrap;html=1;fillColor=#76608a;fontColor=#ffffff;strokeColor=#432D57;shadow=0;fontSize=13;fontStyle=1;textShadow=1;" vertex="1" parent="1">
          <mxGeometry x="860" y="890" width="30" height="20" as="geometry" />
        </mxCell>
        <mxCell id="WvAvvm8UyNOayVyNj3BO-199" value="LED" style="rounded=0;whiteSpace=wrap;html=1;fillColor=#76608a;fontColor=#ffffff;strokeColor=#432D57;shadow=0;fontSize=13;fontStyle=1;textShadow=1;" vertex="1" parent="1">
          <mxGeometry x="900" y="890" width="30" height="20" as="geometry" />
        </mxCell>
        <mxCell id="WvAvvm8UyNOayVyNj3BO-200" value="LED" style="rounded=0;whiteSpace=wrap;html=1;fillColor=#76608a;fontColor=#ffffff;strokeColor=#432D57;shadow=0;fontSize=13;fontStyle=1;textShadow=1;" vertex="1" parent="1">
          <mxGeometry x="740" y="770" width="30" height="20" as="geometry" />
        </mxCell>
        <mxCell id="WvAvvm8UyNOayVyNj3BO-201" value="LED" style="rounded=0;whiteSpace=wrap;html=1;fillColor=#76608a;fontColor=#ffffff;strokeColor=#432D57;shadow=0;fontSize=13;fontStyle=1;textShadow=1;" vertex="1" parent="1">
          <mxGeometry x="740" y="800" width="30" height="20" as="geometry" />
        </mxCell>
        <mxCell id="WvAvvm8UyNOayVyNj3BO-202" value="LED" style="rounded=0;whiteSpace=wrap;html=1;fillColor=#76608a;fontColor=#ffffff;strokeColor=#432D57;shadow=0;fontSize=13;fontStyle=1;textShadow=1;" vertex="1" parent="1">
          <mxGeometry x="740" y="830" width="30" height="20" as="geometry" />
        </mxCell>
        <mxCell id="WvAvvm8UyNOayVyNj3BO-203" value="LED" style="rounded=0;whiteSpace=wrap;html=1;fillColor=#76608a;fontColor=#ffffff;strokeColor=#432D57;shadow=0;fontSize=13;fontStyle=1;textShadow=1;" vertex="1" parent="1">
          <mxGeometry x="740" y="860" width="30" height="20" as="geometry" />
        </mxCell>
        <mxCell id="WvAvvm8UyNOayVyNj3BO-204" value="LED" style="rounded=0;whiteSpace=wrap;html=1;fillColor=#76608a;fontColor=#ffffff;strokeColor=#432D57;shadow=0;fontSize=13;fontStyle=1;textShadow=1;" vertex="1" parent="1">
          <mxGeometry x="940" y="770" width="30" height="20" as="geometry" />
        </mxCell>
        <mxCell id="WvAvvm8UyNOayVyNj3BO-205" value="LED" style="rounded=0;whiteSpace=wrap;html=1;fillColor=#76608a;fontColor=#ffffff;strokeColor=#432D57;shadow=0;fontSize=13;fontStyle=1;textShadow=1;" vertex="1" parent="1">
          <mxGeometry x="940" y="800" width="30" height="20" as="geometry" />
        </mxCell>
        <mxCell id="WvAvvm8UyNOayVyNj3BO-206" value="LED" style="rounded=0;whiteSpace=wrap;html=1;fillColor=#76608a;fontColor=#ffffff;strokeColor=#432D57;shadow=0;fontSize=13;fontStyle=1;textShadow=1;" vertex="1" parent="1">
          <mxGeometry x="940" y="830" width="30" height="20" as="geometry" />
        </mxCell>
        <mxCell id="WvAvvm8UyNOayVyNj3BO-207" value="LED" style="rounded=0;whiteSpace=wrap;html=1;fillColor=#76608a;fontColor=#ffffff;strokeColor=#432D57;shadow=0;fontSize=13;fontStyle=1;textShadow=1;" vertex="1" parent="1">
          <mxGeometry x="940" y="860" width="30" height="20" as="geometry" />
        </mxCell>
        <mxCell id="WvAvvm8UyNOayVyNj3BO-236" style="edgeStyle=orthogonalEdgeStyle;rounded=1;orthogonalLoop=1;jettySize=auto;html=1;exitX=1;exitY=0.5;exitDx=0;exitDy=0;entryX=0.5;entryY=0;entryDx=0;entryDy=0;endSize=3;strokeWidth=2;strokeColor=#666666;shadow=0;fontSize=13;fontStyle=1;textShadow=1;endArrow=classicThin;endFill=1;curved=0;arcSize=10;" edge="1" parent="1" source="WvAvvm8UyNOayVyNj3BO-225" target="WvAvvm8UyNOayVyNj3BO-224">
          <mxGeometry relative="1" as="geometry" />
        </mxCell>
        <mxCell id="WvAvvm8UyNOayVyNj3BO-225" value="LED Resistor" style="rounded=0;whiteSpace=wrap;html=1;fillColor=#647687;fontColor=#ffffff;strokeColor=#314354;shadow=0;fontSize=13;fontStyle=1;textShadow=1;" vertex="1" parent="1">
          <mxGeometry x="740" y="700" width="90" height="20" as="geometry" />
        </mxCell>
        <mxCell id="WvAvvm8UyNOayVyNj3BO-233" value="OpenMV H7" style="rounded=0;whiteSpace=wrap;html=1;fillColor=#76608a;strokeColor=#432D57;fontColor=#ffffff;shadow=0;fontSize=13;fontStyle=1;textShadow=1;" vertex="1" parent="1">
          <mxGeometry x="260" y="250" width="190" height="70" as="geometry" />
        </mxCell>
        <mxCell id="XjKBQxsJ7tb0eZdyF9zt-7" value="" style="endArrow=none;html=1;rounded=0;strokeWidth=5;shadow=0;" edge="1" parent="1">
          <mxGeometry width="50" height="50" relative="1" as="geometry">
            <mxPoint x="740" y="290" as="sourcePoint" />
            <mxPoint x="770" y="290" as="targetPoint" />
          </mxGeometry>
        </mxCell>
        <mxCell id="XjKBQxsJ7tb0eZdyF9zt-8" style="edgeStyle=orthogonalEdgeStyle;rounded=1;orthogonalLoop=1;jettySize=auto;html=1;exitX=0.5;exitY=1;exitDx=0;exitDy=0;entryX=0.5;entryY=0;entryDx=0;entryDy=0;curved=0;strokeWidth=2;arcSize=10;strokeColor=#666666;endArrow=classicThin;endFill=1;endSize=3;shadow=0;jumpStyle=arc;" edge="1" parent="1" source="WvAvvm8UyNOayVyNj3BO-17" target="WvAvvm8UyNOayVyNj3BO-208">
          <mxGeometry relative="1" as="geometry" />
        </mxCell>
        <mxCell id="XjKBQxsJ7tb0eZdyF9zt-12" value="" style="endArrow=none;html=1;rounded=0;fillColor=#fff2cc;strokeColor=#d6b656;strokeWidth=2;" edge="1" parent="1">
          <mxGeometry width="50" height="50" relative="1" as="geometry">
            <mxPoint x="1000" y="260" as="sourcePoint" />
            <mxPoint x="1040" y="260" as="targetPoint" />
          </mxGeometry>
        </mxCell>
        <mxCell id="XjKBQxsJ7tb0eZdyF9zt-15" value="Data" style="text;html=1;align=left;verticalAlign=middle;whiteSpace=wrap;rounded=0;" vertex="1" parent="1">
          <mxGeometry x="1040" y="250" width="40" height="20" as="geometry" />
        </mxCell>
        <mxCell id="XjKBQxsJ7tb0eZdyF9zt-17" value="" style="endArrow=none;html=1;rounded=0;fillColor=#fff2cc;strokeColor=#000000;strokeWidth=5;" edge="1" parent="1">
          <mxGeometry width="50" height="50" relative="1" as="geometry">
            <mxPoint x="1000" y="280" as="sourcePoint" />
            <mxPoint x="1040" y="280" as="targetPoint" />
          </mxGeometry>
        </mxCell>
        <mxCell id="XjKBQxsJ7tb0eZdyF9zt-18" value="12V" style="text;html=1;align=left;verticalAlign=middle;whiteSpace=wrap;rounded=0;" vertex="1" parent="1">
          <mxGeometry x="1040" y="270" width="40" height="20" as="geometry" />
        </mxCell>
        <mxCell id="XjKBQxsJ7tb0eZdyF9zt-19" value="" style="endArrow=none;html=1;rounded=0;fillColor=#fff2cc;strokeColor=#333333;strokeWidth=3;" edge="1" parent="1">
          <mxGeometry width="50" height="50" relative="1" as="geometry">
            <mxPoint x="1000" y="300" as="sourcePoint" />
            <mxPoint x="1040" y="300" as="targetPoint" />
          </mxGeometry>
        </mxCell>
        <mxCell id="XjKBQxsJ7tb0eZdyF9zt-20" value="5V" style="text;html=1;align=left;verticalAlign=middle;whiteSpace=wrap;rounded=0;" vertex="1" parent="1">
          <mxGeometry x="1040" y="290" width="40" height="20" as="geometry" />
        </mxCell>
        <mxCell id="XjKBQxsJ7tb0eZdyF9zt-23" value="" style="endArrow=none;html=1;rounded=0;fillColor=#fff2cc;strokeColor=#666666;strokeWidth=2;" edge="1" parent="1">
          <mxGeometry width="50" height="50" relative="1" as="geometry">
            <mxPoint x="1000" y="320" as="sourcePoint" />
            <mxPoint x="1040" y="320" as="targetPoint" />
          </mxGeometry>
        </mxCell>
        <mxCell id="XjKBQxsJ7tb0eZdyF9zt-24" value="3.3V" style="text;html=1;align=left;verticalAlign=middle;whiteSpace=wrap;rounded=0;" vertex="1" parent="1">
          <mxGeometry x="1040" y="310" width="40" height="20" as="geometry" />
        </mxCell>
        <mxCell id="XjKBQxsJ7tb0eZdyF9zt-25" value="Controller data" style="text;html=1;align=left;verticalAlign=middle;whiteSpace=wrap;rounded=0;" vertex="1" parent="1">
          <mxGeometry x="1040" y="230" width="90" height="20" as="geometry" />
        </mxCell>
        <mxCell id="XjKBQxsJ7tb0eZdyF9zt-26" value="" style="endArrow=none;html=1;rounded=0;fillColor=#6a00ff;strokeColor=#3700CC;strokeWidth=5;" edge="1" parent="1">
          <mxGeometry width="50" height="50" relative="1" as="geometry">
            <mxPoint x="1000" y="240" as="sourcePoint" />
            <mxPoint x="1040" y="240" as="targetPoint" />
          </mxGeometry>
        </mxCell>
        <mxCell id="XjKBQxsJ7tb0eZdyF9zt-27" value="&lt;div style=&quot;font-size: 13px;&quot;&gt;&lt;br&gt;&lt;/div&gt;&lt;div style=&quot;font-size: 13px;&quot;&gt;&lt;br&gt;&lt;/div&gt;" style="rounded=0;whiteSpace=wrap;html=1;fillColor=#76608a;fontColor=#ffffff;strokeColor=#432D57;align=center;shadow=0;fontSize=13;fontStyle=1;textShadow=1;" vertex="1" parent="1">
          <mxGeometry x="1000" y="360" width="40" height="20" as="geometry" />
        </mxCell>
        <mxCell id="XjKBQxsJ7tb0eZdyF9zt-28" value="Sensor" style="text;html=1;align=left;verticalAlign=middle;whiteSpace=wrap;rounded=0;" vertex="1" parent="1">
          <mxGeometry x="1040" y="360" width="40" height="20" as="geometry" />
        </mxCell>
        <mxCell id="XjKBQxsJ7tb0eZdyF9zt-29" value="&lt;div&gt;&lt;br&gt;&lt;/div&gt;&lt;div&gt;&lt;br&gt;&lt;/div&gt;" style="rounded=0;whiteSpace=wrap;html=1;fillColor=#0050ef;fontColor=#ffffff;strokeColor=#001DBC;shadow=0;fontSize=13;fontStyle=1;textShadow=1;" vertex="1" parent="1">
          <mxGeometry x="1000" y="390" width="40" height="20" as="geometry" />
        </mxCell>
        <mxCell id="XjKBQxsJ7tb0eZdyF9zt-30" value="Power" style="text;html=1;align=left;verticalAlign=middle;whiteSpace=wrap;rounded=0;" vertex="1" parent="1">
          <mxGeometry x="1040" y="390" width="40" height="20" as="geometry" />
        </mxCell>
        <mxCell id="XjKBQxsJ7tb0eZdyF9zt-31" value="" style="rounded=0;whiteSpace=wrap;html=1;fillColor=#008a00;fontColor=#ffffff;strokeColor=#005700;shadow=0;fontSize=13;fontStyle=1;textShadow=1;" vertex="1" parent="1">
          <mxGeometry x="1000" y="420" width="40" height="20" as="geometry" />
        </mxCell>
        <mxCell id="XjKBQxsJ7tb0eZdyF9zt-32" value="Controller" style="text;html=1;align=left;verticalAlign=middle;whiteSpace=wrap;rounded=0;" vertex="1" parent="1">
          <mxGeometry x="1040" y="420" width="40" height="20" as="geometry" />
        </mxCell>
      </root>
    </mxGraphModel>
  </diagram>
</mxfile>
